<?xml version="1.0" standalone="no"?>
<!DOCTYPE svg PUBLIC "-//W3C//DTD SVG 20010904//EN"
 "http://www.w3.org/TR/2001/REC-SVG-20010904/DTD/svg10.dtd">
<svg version="1.0" xmlns="http://www.w3.org/2000/svg"
 width="481.000000pt" height="105.000000pt" viewBox="0 0 481.000000 105.000000"
 preserveAspectRatio="xMidYMid meet">

<g transform="translate(0.000000,105.000000) scale(0.100000,-0.100000)"
fill="#000000" stroke="none">
<path d="M287 1033 c-3 -5 -7 -21 -10 -38 -4 -16 -40 -192 -82 -390 -108 -512
-115 -547 -122 -573 l-5 -22 198 2 198 3 32 160 c18 88 36 170 39 183 5 22 8
22 169 22 l164 0 22 98 c12 53 24 107 27 120 l5 22 -166 0 -166 0 5 23 c3 12
11 49 18 82 l14 60 221 3 c252 3 232 12 207 -91 -8 -34 -42 -192 -75 -352 -33
-160 -63 -300 -65 -312 l-5 -23 489 0 489 0 12 65 12 66 34 -26 c107 -81 232
-105 553 -105 l237 0 74 150 74 150 174 0 c129 0 174 -3 177 -12 2 -7 11 -75
21 -151 l17 -137 335 2 336 3 31 145 31 145 189 6 c105 3 204 11 220 16 161
55 266 169 310 338 49 190 -33 323 -223 364 -33 7 -179 11 -392 11 -314 0
-339 -1 -343 -17 -6 -22 -12 -48 -87 -408 -79 -376 -71 -348 -81 -305 -4 19
-22 132 -39 250 -28 195 -52 362 -66 448 l-5 32 -272 0 -272 -1 -215 -385
-215 -385 -85 6 c-168 13 -235 72 -234 205 2 125 81 235 202 280 37 14 93 24
166 28 l110 7 67 120 67 120 -166 3 c-195 4 -306 -9 -415 -49 -241 -87 -386
-260 -418 -499 -11 -77 -4 -161 16 -212 7 -17 -8 -18 -229 -18 -190 0 -236 3
-236 13 0 8 5 39 11 70 l12 57 151 0 151 0 23 108 c12 59 22 113 22 120 0 9
-36 12 -145 12 -110 0 -145 3 -145 13 1 6 6 39 13 72 l13 60 209 5 209 5 22
95 c12 52 25 107 28 123 l6 27 -825 0 c-453 0 -826 -3 -828 -7z m2902 -318
c12 -83 21 -158 21 -168 0 -15 -12 -17 -105 -17 -58 0 -105 3 -105 7 0 9 162
334 166 331 1 -2 12 -71 23 -153z m1145 71 c88 -37 59 -178 -46 -221 -50 -20
-228 -34 -228 -17 0 6 11 62 25 126 14 64 25 118 25 121 0 12 192 4 224 -9z"/>
</g>
</svg>
