<?xml version="1.0" encoding="UTF-8"?>
<!DOCTYPE svg PUBLIC "-//W3C//DTD SVG 1.1//EN" "http://www.w3.org/Graphics/SVG/1.1/DTD/svg11.dtd">
<svg xmlns="http://www.w3.org/2000/svg" version="1.1" width="481px" height="105px" style="shape-rendering:geometricPrecision; text-rendering:geometricPrecision; image-rendering:optimizeQuality; fill-rule:evenodd; clip-rule:evenodd" xmlns:xlink="http://www.w3.org/1999/xlink">
<g><path style="opacity:1" fill="#fdfdfd" d="M -0.5,-0.5 C 8.83333,-0.5 18.1667,-0.5 27.5,-0.5C 27.5,-0.166667 27.5,0.166667 27.5,0.5C 20.8215,34.906 13.8215,69.2393 6.5,103.5C 6.5,103.833 6.5,104.167 6.5,104.5C 4.16667,104.5 1.83333,104.5 -0.5,104.5C -0.5,69.5 -0.5,34.5 -0.5,-0.5 Z"/></g>
<g><path style="opacity:1" fill="#f8faf9" d="M 27.5,0.5 C 27.5,0.166667 27.5,-0.166667 27.5,-0.5C 111.833,-0.5 196.167,-0.5 280.5,-0.5C 280.5,-0.166667 280.5,0.166667 280.5,0.5C 266.496,0.333428 252.496,0.500094 238.5,1C 212.489,4.40345 193.989,17.9035 183,41.5C 179.79,51.2598 178.79,61.2598 180,71.5C 180.642,73.7619 181.475,75.9285 182.5,78C 166.837,78.4999 151.17,78.6666 135.5,78.5C 135.95,73.7984 136.617,69.1317 137.5,64.5C 147.833,64.5 158.167,64.5 168.5,64.5C 169.63,56.7246 171.296,49.0579 173.5,41.5C 163.522,40.5015 153.522,40.1681 143.5,40.5C 144.057,35.55 145.057,30.7167 146.5,26C 160.496,25.5001 174.496,25.3334 188.5,25.5C 189.532,17.372 191.198,9.372 193.5,1.5C 138.171,0.500048 82.8373,0.166715 27.5,0.5 Z"/></g>
<g><path style="opacity:1" fill="#fcfdfc" d="M 280.5,-0.5 C 284.833,-0.5 289.167,-0.5 293.5,-0.5C 293.5,-0.166667 293.5,0.166667 293.5,0.5C 279.691,25.4457 265.858,50.4457 252,75.5C 244.846,76.8652 237.679,76.6985 230.5,75C 225.243,72.7437 221.743,68.9104 220,63.5C 217.717,44.7886 225.551,32.622 243.5,27C 251.167,26.6667 258.833,26.3333 266.5,26C 271.318,17.526 275.985,9.02601 280.5,0.5C 280.5,0.166667 280.5,-0.166667 280.5,-0.5 Z"/></g>
<g><path style="opacity:1" fill="#f6f9f7" d="M 293.5,0.5 C 293.5,0.166667 293.5,-0.166667 293.5,-0.5C 343.5,-0.5 393.5,-0.5 443.5,-0.5C 443.5,-0.166667 443.5,0.166667 443.5,0.5C 420.833,0.5 398.167,0.5 375.5,0.5C 370.979,25.6251 365.812,50.6251 360,75.5C 356.493,50.7716 352.659,26.1049 348.5,1.5C 330.179,0.50044 311.845,0.167107 293.5,0.5 Z"/></g>
<g><path style="opacity:1" fill="#fdfdfd" d="M 443.5,0.5 C 443.5,0.166667 443.5,-0.166667 443.5,-0.5C 455.833,-0.5 468.167,-0.5 480.5,-0.5C 480.5,34.5 480.5,69.5 480.5,104.5C 451.833,104.5 423.167,104.5 394.5,104.5C 394.5,104.167 394.5,103.833 394.5,103.5C 396.019,93.5478 398.019,83.7144 400.5,74C 412.167,73.6667 423.833,73.3333 435.5,73C 459.335,67.4937 472.002,52.4937 473.5,28C 473.784,16.6315 468.784,8.63155 458.5,4C 453.598,2.35754 448.598,1.19087 443.5,0.5 Z"/></g>
<g><path style="opacity:1" fill="#03693c" d="M 27.5,0.5 C 82.8373,0.166715 138.171,0.500048 193.5,1.5C 191.198,9.372 189.532,17.372 188.5,25.5C 174.496,25.3334 160.496,25.5001 146.5,26C 145.057,30.7167 144.057,35.55 143.5,40.5C 153.522,40.1681 163.522,40.5015 173.5,41.5C 171.296,49.0579 169.63,56.7246 168.5,64.5C 158.167,64.5 147.833,64.5 137.5,64.5C 136.617,69.1317 135.95,73.7984 135.5,78.5C 151.17,78.6666 166.837,78.4999 182.5,78C 181.475,75.9285 180.642,73.7619 180,71.5C 178.79,61.2598 179.79,51.2598 183,41.5C 193.989,17.9035 212.489,4.40345 238.5,1C 252.496,0.500094 266.496,0.333428 280.5,0.5C 275.985,9.02601 271.318,17.526 266.5,26C 258.833,26.3333 251.167,26.6667 243.5,27C 225.551,32.622 217.717,44.7886 220,63.5C 221.743,68.9104 225.243,72.7437 230.5,75C 237.679,76.6985 244.846,76.8652 252,75.5C 265.858,50.4457 279.691,25.4457 293.5,0.5C 311.845,0.167107 330.179,0.50044 348.5,1.5C 352.659,26.1049 356.493,50.7716 360,75.5C 365.812,50.6251 370.979,25.6251 375.5,0.5C 398.167,0.5 420.833,0.5 443.5,0.5C 448.598,1.19087 453.598,2.35754 458.5,4C 468.784,8.63155 473.784,16.6315 473.5,28C 472.002,52.4937 459.335,67.4937 435.5,73C 423.833,73.3333 412.167,73.6667 400.5,74C 398.019,83.7144 396.019,93.5478 394.5,103.5C 371.833,103.5 349.167,103.5 326.5,103.5C 325.569,93.8127 324.402,84.1461 323,74.5C 311.229,73.1797 299.395,73.1797 287.5,74.5C 282.833,83.8333 278.167,93.1667 273.5,102.5C 255.509,103.666 237.509,103.833 219.5,103C 209.137,101.603 199.804,97.7698 191.5,91.5C 189.741,95.2926 188.741,99.2926 188.5,103.5C 155.483,104.16 122.816,103.493 90.5,101.5C 96.0515,76.1834 101.385,50.8501 106.5,25.5C 91.5884,25.176 76.755,25.5094 62,26.5C 60.9882,31.5466 59.8215,36.5466 58.5,41.5C 69.4798,42.4988 80.4798,42.8321 91.5,42.5C 89.9293,50.3723 88.2626,58.2057 86.5,66C 75.4849,66.1676 64.4849,66.6676 53.5,67.5C 50.5301,79.0162 48.1968,90.6828 46.5,102.5C 33.2459,103.481 19.9125,103.814 6.5,103.5C 13.8215,69.2393 20.8215,34.906 27.5,0.5 Z"/></g>
<g><path style="opacity:1" fill="#f8faf9" d="M 315.5,18.5 C 317.726,29.2787 319.393,40.2787 320.5,51.5C 313.468,51.8303 306.468,51.497 299.5,50.5C 304.847,39.8068 310.18,29.1401 315.5,18.5 Z"/></g>
<g><path style="opacity:1" fill="#fafcfb" d="M 410.5,24.5 C 417.175,24.3337 423.842,24.5004 430.5,25C 437.106,27.2534 439.273,31.7534 437,38.5C 435.436,42.7884 432.603,45.955 428.5,48C 420.905,49.3561 413.238,49.8561 405.5,49.5C 407.488,41.2387 409.155,32.9054 410.5,24.5 Z"/></g>
<g><path style="opacity:1" fill="#fbfcfc" d="M 90.5,101.5 C 89.596,102.209 89.2627,103.209 89.5,104.5C 75.1667,104.5 60.8333,104.5 46.5,104.5C 46.5,103.833 46.5,103.167 46.5,102.5C 48.1968,90.6828 50.5301,79.0162 53.5,67.5C 64.4849,66.6676 75.4849,66.1676 86.5,66C 88.2626,58.2057 89.9293,50.3723 91.5,42.5C 80.4798,42.8321 69.4798,42.4988 58.5,41.5C 59.8215,36.5466 60.9882,31.5466 62,26.5C 76.755,25.5094 91.5884,25.176 106.5,25.5C 101.385,50.8501 96.0515,76.1834 90.5,101.5 Z"/></g>
<g><path style="opacity:1" fill="#f9fbfa" d="M 394.5,103.5 C 394.5,103.833 394.5,104.167 394.5,104.5C 325.833,104.5 257.167,104.5 188.5,104.5C 188.5,104.167 188.5,103.833 188.5,103.5C 188.741,99.2926 189.741,95.2926 191.5,91.5C 199.804,97.7698 209.137,101.603 219.5,103C 237.509,103.833 255.509,103.666 273.5,102.5C 278.167,93.1667 282.833,83.8333 287.5,74.5C 299.395,73.1797 311.229,73.1797 323,74.5C 324.402,84.1461 325.569,93.8127 326.5,103.5C 349.167,103.5 371.833,103.5 394.5,103.5 Z"/></g>
<g><path style="opacity:1" fill="#c9dcd3" d="M 46.5,102.5 C 46.5,103.167 46.5,103.833 46.5,104.5C 33.1667,104.5 19.8333,104.5 6.5,104.5C 6.5,104.167 6.5,103.833 6.5,103.5C 19.9125,103.814 33.2459,103.481 46.5,102.5 Z"/></g>
<g><path style="opacity:1" fill="#caddd4" d="M 90.5,101.5 C 122.816,103.493 155.483,104.16 188.5,103.5C 188.5,103.833 188.5,104.167 188.5,104.5C 155.5,104.5 122.5,104.5 89.5,104.5C 89.2627,103.209 89.596,102.209 90.5,101.5 Z"/></g>
</svg>
