<?xml version="1.0" encoding="UTF-8"?>
<!DOCTYPE svg PUBLIC "-//W3C//DTD SVG 1.1//EN" "http://www.w3.org/Graphics/SVG/1.1/DTD/svg11.dtd">
<svg xmlns="http://www.w3.org/2000/svg" version="1.1" width="1005px" height="907px" style="shape-rendering:geometricPrecision; text-rendering:geometricPrecision; image-rendering:optimizeQuality; fill-rule:evenodd; clip-rule:evenodd" xmlns:xlink="http://www.w3.org/1999/xlink">
<g><path style="opacity:0.956" fill="#116332" d="M 701.5,-0.5 C 712.167,-0.5 722.833,-0.5 733.5,-0.5C 791.713,10.5462 826.547,45.2129 838,103.5C 840,115.167 840,126.833 838,138.5C 836.043,149.009 833.71,159.342 831,169.5C 848.024,187.899 863.357,207.566 877,228.5C 879.219,232.271 880.885,236.271 882,240.5C 884.679,254.912 887.679,269.245 891,283.5C 901.863,294.697 913.029,305.53 924.5,316C 947.984,336.152 970.817,356.985 993,378.5C 998.479,387.059 998.813,395.726 994,404.5C 982.992,414.01 972.159,423.677 961.5,433.5C 966.106,457.468 970.606,481.468 975,505.5C 986.881,514.055 994.881,525.389 999,539.5C 1001.02,546.586 1002.85,553.586 1004.5,560.5C 1004.5,566.833 1004.5,573.167 1004.5,579.5C 1000.41,591.435 993.074,600.935 982.5,608C 952.809,621.841 922.143,633.008 890.5,641.5C 877.241,710.962 863.408,780.296 849,849.5C 822.224,878.465 789.724,897.465 751.5,906.5C 741.5,906.5 731.5,906.5 721.5,906.5C 708.226,904.024 695.226,900.191 682.5,895C 648.957,878.062 615.29,861.395 581.5,845C 562.995,836.943 543.995,830.276 524.5,825C 506.321,820.935 487.988,819.935 469.5,822C 448.033,826.037 426.699,830.37 405.5,835C 421.17,810.147 436.17,784.981 450.5,759.5C 413.086,758.037 388.919,739.371 378,703.5C 376.284,693.309 376.118,683.142 377.5,673C 352.641,657.448 341.474,634.948 344,605.5C 314.661,579.677 292.827,548.51 278.5,512C 263.137,510.402 250.303,503.902 240,492.5C 221.401,496.462 203.901,493.629 187.5,484C 184.13,480.965 181.13,477.632 178.5,474C 148.809,475.891 123.975,466.058 104,444.5C 85.9073,447.416 68.074,446.249 50.5,441C 33,431.5 19.5,418 10,400.5C 6.3825,393.107 2.8825,385.773 -0.5,378.5C -0.5,377.5 -0.5,376.5 -0.5,375.5C 51.7372,364.476 102.737,349.31 152.5,330C 140.35,320.661 132.35,308.494 128.5,293.5C 99.5451,294.097 75.0451,284.097 55,263.5C 42.68,250.211 32.8467,235.211 25.5,218.5C 120.161,211.439 213.994,198.772 307,180.5C 344.24,123.594 395.74,85.7611 461.5,67C 512.048,53.1766 563.381,48.8432 615.5,54C 636.246,23.4538 664.913,5.28711 701.5,-0.5 Z M 706.5,18.5 C 755.745,16.9601 790.912,38.2935 812,82.5C 825.102,118.694 820.435,152.36 798,183.5C 794.686,187.981 790.852,191.981 786.5,195.5C 784.525,177.076 778.859,159.91 769.5,144C 790.004,126.51 796.504,104.677 789,78.5C 774.055,43.2713 747.555,28.7713 709.5,35C 678.88,42.9525 658.546,61.9525 648.5,92C 637.331,94.0557 626.831,97.889 617,103.5C 623.644,67.8434 643.477,42.3434 676.5,27C 686.276,22.8936 696.276,20.0602 706.5,18.5 Z M 716.5,54.5 C 741.9,51.7787 759.4,62.112 769,85.5C 774.099,101.538 770.265,115.038 757.5,126C 756.833,126.667 756.167,126.667 755.5,126C 743.882,114.193 730.548,104.86 715.5,98C 722.226,89.653 730.059,88.153 739,93.5C 741.523,97.0685 742.856,101.069 743,105.5C 748.484,114.024 754.818,114.691 762,107.5C 764.713,88.4305 756.879,75.9305 738.5,70C 719.486,67.1749 705.152,74.0083 695.5,90.5C 694.333,90.8333 693.167,91.1667 692,91.5C 685.837,90.7337 679.67,90.067 673.5,89.5C 679.62,74.548 690.286,64.048 705.5,58C 709.333,56.9662 712.999,55.7995 716.5,54.5 Z M 553.5,71.5 C 570.218,71.0939 586.885,71.7606 603.5,73.5C 597.327,88.1986 594.16,103.532 594,119.5C 566.3,145.415 553.8,177.415 556.5,215.5C 528.398,215.922 503.231,224.589 481,241.5C 469.501,228.834 455.334,221.001 438.5,218C 428.528,217.051 418.861,218.384 409.5,222C 392.9,228.976 376.4,236.143 360,243.5C 366.614,206.611 381.614,173.611 405,144.5C 413.358,135.752 422.192,127.585 431.5,120C 415.402,126.056 400.735,134.723 387.5,146C 353.339,178.199 328.839,216.699 314,261.5C 306.514,265.825 298.681,269.492 290.5,272.5C 314.216,173.944 375.216,111.111 473.5,84C 499.929,77.3454 526.596,73.1788 553.5,71.5 Z M 663.5,110.5 C 712.649,110.471 745.482,133.471 762,179.5C 769.107,206.658 765.107,231.991 750,255.5C 735.708,271.397 717.874,280.564 696.5,283C 687.865,284.312 679.199,284.645 670.5,284C 668.899,283.727 667.399,283.227 666,282.5C 653.307,258.974 635.14,240.974 611.5,228.5C 603.479,199.394 611.812,176.227 636.5,159C 656.176,147.394 675.509,147.727 694.5,160C 713.05,177.042 715.883,196.209 703,217.5C 691.881,228.822 679.047,231.322 664.5,225C 652.161,215.322 650.161,203.989 658.5,191C 665.603,185.28 672.77,185.114 680,190.5C 681.667,195.167 683.333,199.833 685,204.5C 690.626,209.822 696.293,209.822 702,204.5C 705.458,187.916 699.625,175.749 684.5,168C 662.359,161.594 645.859,168.428 635,188.5C 627.515,217.093 637.348,236.927 664.5,248C 694.736,253.301 716.236,242.134 729,214.5C 737.698,178.735 725.864,152.235 693.5,135C 658.893,123.648 629.393,131.481 605,158.5C 591.575,176.509 585.409,196.842 586.5,219.5C 583.553,218.577 580.553,217.911 577.5,217.5C 574.939,165.75 597.939,131.25 646.5,114C 652.265,112.614 657.931,111.448 663.5,110.5 Z M 820.5,185.5 C 835.188,201.859 848.688,219.192 861,237.5C 863.261,241.95 864.928,246.617 866,251.5C 867.722,262.553 869.722,273.553 872,284.5C 872.899,288.538 874.566,292.205 877,295.5C 907.967,326.474 940.134,355.974 973.5,384C 975.869,386.57 977.869,389.404 979.5,392.5C 966.71,403.452 954.044,414.618 941.5,426C 944.274,439.313 946.941,452.646 949.5,466C 931.782,476.192 913.115,484.192 893.5,490C 900.167,490.667 906.833,490.667 913.5,490C 926.551,488.047 939.551,485.88 952.5,483.5C 954.138,493.856 955.971,504.19 958,514.5C 977.91,529.864 987.243,550.197 986,575.5C 982.444,585.543 975.61,592.377 965.5,596C 930.33,611.279 893.997,622.945 856.5,631C 825.502,634.978 794.502,635.311 763.5,632C 761.275,631.439 759.275,630.439 757.5,629C 732.374,601.547 708.374,573.214 685.5,544C 662.892,550.355 645.059,543.855 632,524.5C 627.567,514.467 622.733,504.633 617.5,495C 645.409,482.356 661.576,460.856 666,430.5C 666.703,418.428 666.37,406.428 665,394.5C 677.071,370.745 680.904,345.745 676.5,319.5C 735.229,312.265 771.395,279.932 785,222.5C 799.422,212.58 811.255,200.246 820.5,185.5 Z M 290.5,202.5 C 291.873,202.343 293.207,202.51 294.5,203C 281.697,228.239 272.364,254.739 266.5,282.5C 236.057,295.722 205.39,308.389 174.5,320.5C 158.821,314.979 149.321,303.979 146,287.5C 145.129,282.488 144.296,277.488 143.5,272.5C 119.327,278.792 97.3275,274.292 77.5,259C 69.7622,251.932 62.7622,244.266 56.5,236C 135.096,228.415 213.096,217.248 290.5,202.5 Z M 546.5,236.5 C 592.96,235.137 627.126,254.804 649,295.5C 659.9,319.748 661.233,344.415 653,369.5C 645.576,358.741 636.243,350.075 625,343.5C 633.084,308.722 621.917,282.222 591.5,264C 556.551,251.189 526.385,258.355 501,285.5C 481.532,312.231 477.532,341.231 489,372.5C 491.991,379.815 495.491,386.815 499.5,393.5C 497.344,402.387 495.844,411.387 495,420.5C 456.41,387.815 445.41,347.481 462,299.5C 478.933,263.396 507.1,242.396 546.5,236.5 Z M 425.5,247.5 C 431.245,247.211 436.912,247.711 442.5,249C 449.248,252.915 455.248,257.748 460.5,263.5C 449.47,278.228 441.637,294.561 437,312.5C 423.333,329.5 409.667,346.5 396,363.5C 389.15,368.705 382.317,368.705 375.5,363.5C 393.359,340.142 411.026,316.642 428.5,293C 428.167,292.833 427.833,292.667 427.5,292.5C 404.713,313.118 382.38,334.285 360.5,356C 353.536,359.271 346.869,358.605 340.5,354C 364.5,329.333 388.5,304.667 412.5,280C 412.167,279.833 411.833,279.667 411.5,279.5C 381.692,301.474 352.025,323.641 322.5,346C 313.457,348.406 305.457,346.406 298.5,340C 333.167,316.667 367.833,293.333 402.5,270C 402,269.833 401.5,269.667 401,269.5C 362.616,288.275 324.449,307.442 286.5,327C 273.227,331.296 260.561,329.963 248.5,323C 307.526,297.72 366.526,272.553 425.5,247.5 Z M 559.5,276.5 C 592.247,279.077 608.413,296.744 608,329.5C 607.923,332.665 606.59,334.999 604,336.5C 585.177,331.599 566.844,332.932 549,340.5C 544.948,324.931 550.781,315.598 566.5,312.5C 574.602,313.649 579.435,318.316 581,326.5C 586.281,330.699 591.281,330.366 596,325.5C 597.64,316.239 594.807,308.406 587.5,302C 572.9,292.05 558.233,292.05 543.5,302C 529.249,314.934 525.582,330.434 532.5,348.5C 524.094,355.406 516.927,363.406 511,372.5C 496.79,343.487 500.29,316.987 521.5,293C 532.517,283.501 545.184,278.001 559.5,276.5 Z M 829.5,310.5 C 830.117,319.773 826.45,327.273 818.5,333C 810.681,338.455 802.014,340.788 792.5,340C 805.021,330.303 817.354,320.469 829.5,310.5 Z M 435.5,322.5 C 435.581,328.023 435.248,333.523 434.5,339C 435.417,346.503 435.917,354.003 436,361.5C 430.048,372.695 421.881,374.862 411.5,368C 419.139,352.55 427.139,337.384 435.5,322.5 Z M 222.5,332.5 C 224.655,332.372 226.655,332.872 228.5,334C 233.673,338.09 239.34,341.423 245.5,344C 203.5,366.667 161.5,389.333 119.5,412C 102.018,416.47 84.3515,417.47 66.5,415C 56.4604,411.299 48.4604,404.966 42.5,396C 104.792,380.85 164.792,359.683 222.5,332.5 Z M 248.5,345.5 C 258.591,348.515 268.924,350.015 279.5,350C 292.128,362.987 307.462,368.654 325.5,367C 329.084,370.416 333.084,373.249 337.5,375.5C 309.011,403.155 280.345,430.655 251.5,458C 237.689,464.955 223.355,466.288 208.5,462C 205.76,460.95 204.26,459.117 204,456.5C 236,427.167 268,397.833 300,368.5C 300.388,366.924 299.888,365.591 298.5,364.5C 262.361,390.139 226.361,415.973 190.5,442C 178.194,443.931 165.861,443.931 153.5,442C 144.725,440.031 137.225,435.865 131,429.5C 130.383,428.551 130.549,427.718 131.5,427C 169.5,401.333 207.5,375.667 245.5,350C 247.439,349.092 248.439,347.592 248.5,345.5 Z M 530.5,458.5 C 511.115,432.339 510.615,405.673 529,378.5C 547.375,355.819 570.875,347.652 599.5,354C 634.062,366.277 650.229,390.777 648,427.5C 639.001,468.433 613.834,484.266 572.5,475C 547.133,461.245 538.3,440.411 546,412.5C 554.443,396.736 567.61,389.569 585.5,391C 602.354,395.871 609.854,407.038 608,424.5C 602.815,437.511 593.648,442.011 580.5,438C 573.083,432.829 571.416,426.329 575.5,418.5C 579.491,414.088 583.658,413.754 588,417.5C 588.945,426.452 593.779,429.952 602.5,428C 604.667,427.167 606.167,425.667 607,423.5C 607.112,407.108 598.945,398.108 582.5,396.5C 559.318,400.843 550.818,414.51 557,437.5C 565.419,454.292 578.919,460.792 597.5,457C 620.146,449.228 629.646,433.395 626,409.5C 618.249,382.773 600.415,370.606 572.5,373C 542.148,379.353 526.148,398.019 524.5,429C 524.684,439.23 526.684,449.063 530.5,458.5 Z M 343.5,376.5 C 353.148,375.788 361.814,378.288 369.5,384C 345.634,415.566 322.134,447.4 299,479.5C 287.756,484.137 276.922,483.304 266.5,477C 264.671,475.887 263.837,474.387 264,472.5C 290.712,440.627 317.212,408.627 343.5,376.5 Z M 442.5,382.5 C 450.288,400.636 461.288,416.636 475.5,430.5C 464.799,434.526 454.466,439.026 444.5,444C 447.165,438.011 448.999,431.844 450,425.5C 445.937,433.959 441.603,442.293 437,450.5C 424.992,459.836 415.158,471.003 407.5,484C 396.723,490.782 385.057,492.782 372.5,490C 372.043,489.586 371.709,489.086 371.5,488.5C 384.742,455.355 397.409,422.022 409.5,388.5C 417.905,391.155 426.238,390.989 434.5,388C 437.756,386.884 440.422,385.051 442.5,382.5 Z M 374.5,383.5 C 382.47,386.162 390.47,386.162 398.5,383.5C 401.887,384.615 404.887,386.282 407.5,388.5C 389.667,421.5 371.833,454.5 354,487.5C 344.992,494.174 334.825,496.674 323.5,495C 319.678,494.594 316.678,492.928 314.5,490C 334.378,454.408 354.378,418.908 374.5,383.5 Z M 566.5,622.5 C 557.119,628.691 546.785,632.857 535.5,635C 492.052,645.297 456.552,633.13 429,598.5C 403.201,557.312 404.867,517.312 434,478.5C 450.418,460.039 470.918,449.039 495.5,445.5C 498.028,445.763 500.361,446.596 502.5,448C 504.294,451.088 505.961,454.254 507.5,457.5C 457.845,460.823 430.512,487.157 425.5,536.5C 427.152,575.001 444.485,603.834 477.5,623C 496.087,631.226 515.42,633.559 535.5,630C 546.129,628.576 556.463,626.076 566.5,622.5 Z M 500.5,477.5 C 528.561,479.397 544.561,494.23 548.5,522C 546.01,544.161 533.676,555.494 511.5,556C 495.522,551.856 488.689,541.69 491,525.5C 494.867,517.151 501.367,513.318 510.5,514C 516.79,516.292 519.957,520.792 520,527.5C 523.196,534.344 528.362,536.51 535.5,534C 539.188,531.458 540.854,527.958 540.5,523.5C 537.581,504.581 526.581,494.248 507.5,492.5C 488.449,493.72 475.949,503.387 470,521.5C 466.763,554.437 481.596,573.104 514.5,577.5C 547.834,574.166 566.167,555.833 569.5,522.5C 568.822,515.742 567.989,509.075 567,502.5C 573.792,503.465 580.625,504.465 587.5,505.5C 611.257,548.381 601.59,581.214 558.5,604C 534.981,612.967 511.314,613.634 487.5,606C 452.69,585.249 439.857,555.082 449,515.5C 459.006,492.977 476.173,480.31 500.5,477.5 Z M 303.5,519.5 C 312.116,523.07 321.116,525.237 330.5,526C 339.479,540.32 349.979,553.487 362,565.5C 362.667,566.167 362.667,566.833 362,567.5C 357.261,572.404 353.094,577.737 349.5,583.5C 329.885,565.222 314.552,543.889 303.5,519.5 Z M 630.5,564.5 C 643.318,572.373 657.318,576.206 672.5,576C 689.333,596.167 706.167,616.333 723,636.5C 730.714,645.891 739.881,653.391 750.5,659C 756.326,661.099 762.326,662.432 768.5,663C 792.185,663.569 815.851,663.569 839.5,663C 846.373,675.913 853.373,688.747 860.5,701.5C 851.143,747.451 841.976,793.451 833,839.5C 816.792,855.376 798.625,868.543 778.5,879C 752.553,891.24 726.22,892.24 699.5,882C 693.833,879.667 688.167,877.333 682.5,875C 651.724,858.279 620.391,842.612 588.5,828C 572.483,821.159 556.15,815.159 539.5,810C 508.186,801.717 476.853,801.384 445.5,809C 456,791.833 466.5,774.667 477,757.5C 493.195,751.065 507.195,741.398 519,728.5C 531.536,709.348 534.369,688.848 527.5,667C 553.201,663.646 576.201,653.98 596.5,638C 617.672,618.151 629.005,593.651 630.5,564.5 Z M 393.5,572.5 C 395.416,574.669 396.75,577.335 397.5,580.5C 393.939,581.761 390.272,582.594 386.5,583C 381.247,584.808 376.247,586.808 371.5,589C 377.344,581.298 384.677,575.798 393.5,572.5 Z M 410.5,604.5 C 393.155,598.007 382.489,603.84 378.5,622C 381.581,640.068 392.248,647.734 410.5,645C 420.111,642.557 426.778,636.724 430.5,627.5C 436.636,633.068 443.302,637.901 450.5,642C 434.127,642.853 420.794,649.52 410.5,662C 382.575,662.075 368.742,648.242 369,620.5C 374.143,601.101 386.477,593.435 406,597.5C 408.009,599.521 409.509,601.854 410.5,604.5 Z M 416.5,612.5 C 419.144,614.516 419.977,617.183 419,620.5C 415.898,629.931 409.398,634.097 399.5,633C 390.753,628.491 389.419,622.491 395.5,615C 397.833,613 400.167,613 402.5,615C 404.035,617.624 405.202,620.457 406,623.5C 410.415,626.55 414.082,625.883 417,621.5C 417.301,618.493 417.135,615.493 416.5,612.5 Z M 475.5,653.5 C 475.56,652.957 475.893,652.624 476.5,652.5C 487.382,656.213 494.882,663.547 499,674.5C 504.321,691.886 501.655,707.886 491,722.5C 475.98,736.255 458.814,739.755 439.5,733C 417.083,719.666 409.583,700.5 417,675.5C 428.817,655.893 444.984,651.059 465.5,661C 478.651,673.283 479.318,685.95 467.5,699C 455.823,705.723 446.989,703.223 441,691.5C 439.941,683.382 443.441,678.382 451.5,676.5C 453.413,677.373 455.247,678.373 457,679.5C 457.764,683.355 459.264,686.855 461.5,690C 467.352,692.04 470.685,690.04 471.5,684C 469.248,669.704 460.915,663.371 446.5,665C 432.099,669.622 426.266,679.456 429,694.5C 433.055,707.71 442.055,714.71 456,715.5C 479.233,712.263 489.9,698.93 488,675.5C 486.51,666.542 482.344,659.209 475.5,653.5 Z M 402.5,711.5 C 396.74,702.451 394.407,692.451 395.5,681.5C 397.199,681.34 398.866,681.506 400.5,682C 398.958,691.941 399.624,701.774 402.5,711.5 Z"/></g>
<g><path style="opacity:0.953" fill="#116332" d="M 275.5,213.5 C 277.225,213.843 277.725,214.843 277,216.5C 274.788,222.426 271.955,227.926 268.5,233C 228.584,242.383 188.584,251.383 148.5,260C 135.095,262.255 121.762,261.922 108.5,259C 99.3732,256.52 92.7065,251.187 88.5,243C 151.272,235.092 213.606,225.259 275.5,213.5 Z"/></g>
<g><path style="opacity:0.959" fill="#116332" d="M 256.5,255.5 C 257.5,255.5 258.5,255.5 259.5,255.5C 258.326,264.542 256.326,273.375 253.5,282C 229.774,292.353 205.607,301.52 181,309.5C 175.816,308.577 171.816,305.91 169,301.5C 165.275,295.351 163.442,288.851 163.5,282C 194.752,273.608 225.752,264.774 256.5,255.5 Z"/></g>
<g><path style="opacity:0.954" fill="#116332" d="M 833.5,269.5 C 836.263,269.744 838.429,271.077 840,273.5C 844.692,279.359 849.192,285.359 853.5,291.5C 850.354,294.145 847.354,296.978 844.5,300C 849.419,325.161 840.086,342.827 816.5,353C 802.088,357.004 787.588,357.504 773,354.5C 769.448,357.719 765.615,360.552 761.5,363C 738.541,369.821 715.541,376.154 692.5,382C 739.934,344.962 786.934,307.462 833.5,269.5 Z M 829.5,310.5 C 817.354,320.469 805.021,330.303 792.5,340C 802.014,340.788 810.681,338.455 818.5,333C 826.45,327.273 830.117,319.773 829.5,310.5 Z"/></g>
<g><path style="opacity:0.961" fill="#116332" d="M 584.5,659.5 C 585.376,659.369 586.043,659.702 586.5,660.5C 570.55,706.019 554.217,751.352 537.5,796.5C 516.479,792.678 495.479,792.678 474.5,796.5C 473.959,794.477 474.459,792.477 476,790.5C 482.064,781.43 487.731,772.097 493,762.5C 506.183,758.073 517.85,751.073 528,741.5C 543.018,721.612 549.185,699.279 546.5,674.5C 554.586,672.305 562.586,669.805 570.5,667C 575.674,665.249 580.341,662.749 584.5,659.5 Z"/></g>
</svg>
