<?xml version="1.0" standalone="no"?>
<!DOCTYPE svg PUBLIC "-//W3C//DTD SVG 20010904//EN"
 "http://www.w3.org/TR/2001/REC-SVG-20010904/DTD/svg10.dtd">
<svg version="1.0" xmlns="http://www.w3.org/2000/svg"
 width="1184.000000pt" height="608.000000pt" viewBox="0 0 1184.000000 608.000000"
 preserveAspectRatio="xMidYMid meet">

<g transform="translate(0.000000,608.000000) scale(0.100000,-0.100000)"
fill="#000000" stroke="none">
<path d="M0 3040 l0 -3040 5920 0 5920 0 0 3040 0 3040 -5920 0 -5920 0 0
-3040z m6275 1692 c145 -32 226 -56 355 -104 62 -24 239 -116 303 -159 97 -65
246 -187 316 -259 270 -276 463 -697 498 -1085 18 -204 -13 -528 -63 -643 -8
-18 -14 -43 -14 -55 0 -12 -9 -35 -20 -52 -11 -16 -20 -40 -20 -51 0 -12 -7
-27 -15 -34 -8 -7 -15 -21 -15 -31 0 -9 -6 -24 -14 -31 -7 -8 -17 -25 -21 -38
-4 -14 -13 -32 -20 -40 -7 -8 -15 -24 -17 -35 -4 -23 -38 -34 -38 -12 0 8 9
26 20 40 11 14 20 32 20 40 0 8 7 20 15 27 8 7 15 21 15 32 0 11 6 32 14 46
31 62 67 181 103 347 22 101 25 485 4 580 -7 33 -17 82 -21 108 -9 48 -72 250
-88 284 -5 10 -26 54 -47 98 -247 529 -761 902 -1350 980 -646 86 -1258 -170
-1662 -695 -150 -195 -260 -438 -316 -700 -20 -93 -39 -268 -38 -350 2 -98 24
-300 43 -385 42 -193 126 -389 256 -602 36 -59 129 -186 139 -190 7 -3 13 -11
13 -19 0 -8 -6 -11 -15 -8 -8 4 -15 11 -15 18 0 6 -8 16 -19 23 -44 27 -202
250 -279 394 -62 115 -126 305 -158 469 -26 132 -27 464 -1 595 54 273 134
479 267 685 132 206 343 416 560 558 157 103 413 208 585 242 28 5 84 16 125
24 114 23 493 15 615 -12z m183 -441 c54 -21 123 -76 148 -116 48 -78 56 -115
51 -217 l-6 -97 54 -69 c48 -62 72 -114 89 -193 4 -16 50 -67 128 -139 68 -63
129 -121 136 -129 23 -28 13 -61 -32 -109 -43 -46 -44 -49 -36 -87 5 -22 10
-54 10 -71 0 -18 12 -48 30 -72 41 -57 60 -107 60 -158 0 -38 -5 -49 -38 -81
-36 -36 -83 -57 -200 -93 -23 -7 -47 -19 -52 -25 -6 -7 -17 -50 -26 -96 -8
-46 -22 -115 -30 -154 -7 -38 -23 -115 -33 -169 -18 -92 -23 -102 -62 -142
-51 -52 -140 -101 -207 -114 -83 -15 -147 2 -299 78 -260 131 -340 152 -484
127 -51 -8 -96 -18 -100 -21 -5 -3 -12 2 -15 10 -6 15 47 120 67 131 23 15 8
46 -28 61 -73 30 -133 110 -133 175 0 22 -11 46 -35 75 -25 30 -37 57 -42 90
-5 38 -16 58 -58 105 -28 31 -65 84 -83 116 -26 48 -40 62 -84 85 -29 14 -75
29 -103 32 -27 3 -61 14 -75 25 -14 10 -48 21 -75 25 -54 9 -94 26 -114 50 -9
11 -30 16 -65 16 -78 0 -150 40 -198 110 -21 30 -37 64 -35 74 2 19 10 22 259
86 51 13 108 42 108 53 0 24 -52 77 -76 77 -33 0 -103 34 -141 69 -39 36 -86
109 -80 125 4 9 59 19 164 30 158 17 391 49 491 68 43 8 59 17 90 51 185 209
340 279 642 294 l135 6 51 46 c28 25 70 54 95 63 60 22 181 22 237 -1z m1032
-2231 c0 -11 -7 -23 -15 -26 -8 -4 -15 -14 -15 -24 0 -20 -17 -36 -28 -26 -3
4 -1 15 6 24 7 9 17 29 23 45 13 32 29 36 29 7z m-66 -105 c-6 -16 -24 -21
-24 -7 0 11 11 22 21 22 5 0 6 -7 3 -15z m-112 -147 c-7 -7 -12 -8 -12 -2 0
14 12 26 19 19 2 -3 -1 -11 -7 -17z m-1613 -77 c12 -8 13 -16 3 -47 -16 -52
-6 -59 36 -26 73 58 127 74 254 80 137 5 146 -1 108 -71 -34 -64 -54 -77 -118
-77 -43 0 -62 -5 -88 -25 -38 -29 -69 -107 -54 -135 18 -34 62 -60 99 -60 35
0 37 2 91 97 30 54 60 105 65 115 6 9 23 41 38 70 46 85 52 88 186 88 64 0
122 -4 128 -8 15 -9 43 -148 43 -212 0 -45 13 -80 23 -64 9 17 35 129 42 188
12 95 15 96 216 96 188 0 212 -6 265 -61 25 -27 29 -37 27 -89 -1 -42 -8 -71
-24 -97 -57 -95 -105 -122 -239 -131 l-94 -7 -11 -59 c-7 -44 -15 -61 -30 -67
-29 -11 -279 -11 -309 0 -21 8 -26 19 -31 66 -4 30 -13 59 -20 63 -8 4 -42 6
-78 4 l-65 -4 -27 -55 c-42 -83 -51 -86 -212 -81 -108 4 -146 9 -175 23 -38
18 -38 18 -61 -3 -22 -21 -31 -22 -238 -22 -261 0 -256 -2 -239 90 6 36 17 88
25 115 29 107 36 158 23 167 -7 4 -47 8 -88 8 -78 0 -100 -9 -100 -42 0 -15 9
-18 64 -18 74 0 89 -11 80 -61 -13 -67 -27 -79 -99 -79 -76 0 -89 -12 -99 -95
-8 -70 -29 -85 -120 -85 -90 0 -116 15 -98 54 7 15 12 38 12 52 0 14 7 53 15
87 44 188 55 240 55 262 0 14 9 34 20 45 19 19 33 20 403 20 212 0 388 -4 396
-9z"/>
<path d="M6269 4237 c-63 -23 -102 -51 -136 -96 -34 -44 -43 -81 -20 -81 15 0
37 20 92 86 45 54 89 74 159 74 31 0 56 5 56 10 0 6 -10 10 -22 10 -13 0 -39
2 -58 5 -19 3 -51 -1 -71 -8z"/>
<path d="M6460 4206 c0 -2 13 -18 30 -36 54 -58 61 -146 18 -218 -20 -32 -20
-34 -3 -73 10 -21 24 -39 31 -39 8 0 23 20 34 44 25 56 27 162 4 209 -24 48
-114 137 -114 113z"/>
<path d="M6290 4133 c-32 -21 -41 -36 -31 -46 10 -10 92 43 85 55 -8 13 -27
10 -54 -9z"/>
<path d="M5820 4103 c-259 -46 -433 -165 -526 -359 -43 -90 -49 -124 -24 -124
6 0 25 30 41 66 55 120 127 218 196 264 24 17 48 30 53 30 24 0 17 -23 -20
-61 -47 -48 -87 -124 -96 -180 l-6 -38 29 8 c16 5 43 16 61 25 47 24 108 20
160 -10 l44 -26 58 26 c31 14 69 26 83 26 30 0 47 25 47 69 0 37 25 93 64 145
32 41 50 118 32 136 -10 10 -145 12 -196 3z"/>
<path d="M6135 3993 c-35 -18 -105 -83 -105 -97 0 -5 12 2 28 15 55 51 101 70
154 65 78 -9 126 -42 162 -113 40 -79 -3 -171 -96 -204 -31 -11 -44 -11 -74 0
-19 7 -38 11 -41 8 -5 -6 35 -67 52 -79 18 -14 95 -8 128 8 79 40 107 87 107
181 0 70 -15 108 -64 161 -58 64 -183 91 -251 55z"/>
<path d="M6138 3885 c-41 -27 -57 -52 -69 -103 -10 -44 -4 -57 36 -82 44 -27
51 -25 29 7 -47 73 -1 173 79 173 26 0 37 4 35 13 -8 22 -71 18 -110 -8z"/>
<path d="M6001 3844 c0 -11 3 -14 6 -6 3 7 2 16 -1 19 -3 4 -6 -2 -5 -13z"/>
<path d="M6194 3795 c-4 -8 -3 -26 0 -40 8 -30 51 -44 72 -24 11 12 10 19 -12
47 -27 34 -51 41 -60 17z"/>
<path d="M6561 3762 c-18 -20 -43 -61 -54 -91 -28 -72 -105 -150 -173 -175
-97 -35 -97 -35 -91 -62 2 -15 -1 -52 -9 -83 -7 -31 -13 -81 -14 -111 0 -70
-35 -146 -85 -188 -37 -30 -38 -32 -25 -63 22 -52 56 -79 99 -79 46 0 54 -7
155 -127 42 -50 84 -94 92 -97 34 -13 248 -6 303 10 100 29 216 76 239 97 34
32 30 83 -13 143 -19 27 -35 56 -35 65 0 25 -21 37 -68 36 -23 0 -46 3 -49 7
-10 10 13 29 49 40 32 11 33 13 36 71 3 55 6 64 44 102 l41 42 -49 43 c-186
164 -234 223 -234 284 0 41 -88 175 -113 173 -7 -1 -27 -18 -46 -37z m114
-175 c11 -17 13 -37 8 -77 -5 -46 -12 -61 -43 -92 -33 -33 -44 -38 -86 -38
-27 -1 -67 -8 -89 -16 -47 -18 -134 -44 -155 -47 -8 -1 -15 4 -15 12 0 18 324
280 347 280 10 1 24 -9 33 -22z"/>
<path d="M5060 3668 c-226 -51 -211 -43 -184 -115 19 -50 47 -60 38 -14 -8 36
14 52 106 76 115 31 126 31 137 -1 9 -28 9 -28 22 18 7 26 12 50 10 55 -2 5
-60 -4 -129 -19z"/>
<path d="M4670 3677 c0 -29 75 -76 93 -58 7 7 2 12 -17 17 -19 4 -26 13 -26
30 0 19 -5 24 -25 24 -14 0 -25 -6 -25 -13z"/>
<path d="M5872 3680 c-110 -23 -205 -137 -205 -245 0 -84 51 -186 87 -172 13
5 12 14 -6 64 -50 137 -9 247 112 302 51 23 70 25 123 10 78 -21 140 -108 135
-186 -2 -25 3 -39 17 -49 32 -24 45 -17 45 24 0 159 -152 283 -308 252z"/>
<path d="M5538 3638 c-20 -7 -28 -17 -28 -34 0 -21 -2 -23 -26 -13 -34 12 -42
4 -19 -21 22 -24 41 -26 49 -4 3 8 10 12 16 9 15 -9 12 -25 -5 -25 -8 0 -15
-5 -15 -12 0 -7 -25 -38 -56 -69 -31 -32 -54 -63 -51 -70 3 -9 26 7 66 49 56
56 91 77 91 53 0 -5 -16 -30 -35 -55 -55 -72 -43 -91 16 -26 49 53 109 163
109 200 0 30 -55 39 -112 18z"/>
<path d="M5885 3571 c-57 -23 -105 -111 -91 -165 13 -53 56 -23 56 40 0 36 5
47 37 74 31 28 41 31 75 26 39 -6 47 1 26 22 -13 13 -73 15 -103 3z"/>
<path d="M5365 3560 c-3 -5 3 -10 14 -10 12 0 21 5 21 10 0 6 -6 10 -14 10 -8
0 -18 -4 -21 -10z"/>
<path d="M5243 3514 c-53 -24 -69 -44 -35 -44 21 -1 132 52 132 63 0 14 -45 5
-97 -19z"/>
<path d="M5420 3532 c0 -5 -29 -27 -65 -50 -63 -40 -75 -55 -56 -66 9 -6 89
50 124 85 10 11 22 19 27 19 6 0 10 5 10 10 0 6 -9 10 -20 10 -11 0 -20 -4
-20 -8z"/>
<path d="M6027 3489 c-4 -13 -2 -28 3 -33 14 -14 24 19 12 40 -8 14 -10 13
-15 -7z"/>
<path d="M5933 3483 c-7 -3 -13 -11 -13 -19 0 -16 45 -20 55 -5 7 12 -25 30
-42 24z"/>
<path d="M4985 3406 c-138 -59 -208 -84 -278 -102 -68 -17 -93 -38 -66 -55 21
-13 131 -11 159 4 14 7 66 35 115 62 119 64 117 63 138 69 9 3 20 13 24 21 12
34 -13 34 -92 1z"/>
<path d="M5580 3389 c-7 -11 -9 -24 -5 -27 7 -7 35 25 35 40 0 16 -19 8 -30
-13z"/>
<path d="M4993 3304 c-79 -53 -143 -102 -143 -109 0 -19 78 -34 115 -22 24 9
148 93 250 171 20 16 20 16 -4 36 -41 35 -67 25 -218 -76z"/>
<path d="M5924 3371 c-42 -19 -83 -63 -65 -69 6 -2 23 6 39 18 86 64 212 9
212 -92 0 -83 -74 -135 -144 -102 -46 22 -59 9 -23 -22 20 -17 40 -24 68 -24
85 0 139 57 139 146 0 118 -120 195 -226 145z"/>
<path d="M5224 3307 c-38 -39 -151 -139 -170 -150 -8 -4 -14 -17 -14 -27 0
-15 7 -20 26 -20 39 0 61 16 161 111 51 49 97 89 103 89 5 0 10 7 10 15 0 11
-11 15 -42 15 -35 -1 -49 -7 -74 -33z"/>
<path d="M5354 3293 c-15 -15 -52 -59 -82 -98 -31 -38 -63 -75 -71 -81 -18
-14 -7 -44 17 -44 27 0 44 17 106 100 30 41 63 83 71 92 18 18 17 49 -2 55 -7
3 -24 -8 -39 -24z"/>
<path d="M5442 3277 c-12 -13 -22 -31 -22 -40 0 -9 -4 -18 -9 -21 -5 -3 -21
-29 -36 -58 -15 -29 -34 -61 -42 -70 -20 -23 -10 -48 20 -48 29 0 47 19 81 87
14 28 30 54 36 58 5 3 10 15 10 25 0 10 11 27 26 37 17 13 23 24 18 36 -9 25
-56 21 -82 -6z"/>
<path d="M5588 3292 c-30 -4 -68 -44 -68 -73 0 -18 -16 -59 -48 -127 -12 -24
-13 -35 -4 -44 19 -19 55 5 113 76 44 54 58 65 76 61 35 -8 37 12 6 60 -31 49
-36 52 -75 47z"/>
<path d="M5902 3190 c0 -19 2 -27 5 -17 2 9 2 25 0 35 -3 9 -5 1 -5 -18z"/>
<path d="M5985 3201 c-7 -12 12 -24 25 -16 11 7 4 25 -10 25 -5 0 -11 -4 -15
-9z"/>
<path d="M5708 3123 c6 -2 18 -2 25 0 6 3 1 5 -13 5 -14 0 -19 -2 -12 -5z"/>
<path d="M5740 3050 c-60 -23 -90 -67 -90 -132 0 -62 22 -110 69 -148 32 -27
42 -30 110 -30 59 0 81 4 110 22 77 48 103 109 79 183 -9 29 -19 40 -33 40
-16 0 -21 -8 -25 -45 -10 -82 -65 -130 -149 -130 -43 0 -52 4 -80 35 -52 59
-53 107 -5 164 18 22 35 31 55 31 16 0 29 4 29 9 0 18 -26 18 -70 1z"/>
<path d="M5556 2954 c-24 -64 26 -194 89 -226 19 -10 19 -10 4 8 -41 50 -62
101 -67 167 -5 65 -14 83 -26 51z"/>
<path d="M5778 2959 c-39 -22 -6 -79 46 -79 41 0 44 26 5 60 -18 17 -33 30
-33 30 -1 0 -9 -5 -18 -11z"/>
<path d="M5300 2926 c0 -19 80 -107 91 -100 16 10 10 29 -23 72 -31 41 -68 56
-68 28z"/>
<path d="M6131 2816 c-5 -6 -17 -31 -27 -56 -21 -54 -59 -104 -92 -122 -19
-10 -23 -18 -18 -40 3 -16 -1 -48 -9 -71 -9 -23 -25 -69 -36 -102 -12 -33 -32
-86 -45 -117 -13 -32 -24 -64 -24 -71 0 -8 26 -24 63 -37 34 -12 123 -52 197
-89 74 -37 156 -73 183 -81 90 -24 188 6 272 85 37 35 44 47 50 95 3 30 15 92
26 138 25 108 24 156 -2 198 l-21 34 -91 1 c-130 1 -148 10 -245 120 -64 73
-93 98 -127 110 -33 13 -47 14 -54 5z"/>
<path d="M5460 2658 c0 -20 48 -60 69 -56 28 6 22 25 -10 32 -18 3 -38 14 -45
24 -12 16 -13 16 -14 0z"/>
<path d="M5873 2568 c-6 -7 -13 -39 -15 -71 -4 -46 -10 -63 -33 -87 -16 -16
-25 -33 -21 -37 4 -5 23 10 41 31 28 34 34 49 37 105 5 74 5 77 -9 59z"/>
<path d="M5565 2537 c-11 -26 24 -96 56 -113 34 -17 60 -18 92 -3 39 18 88
119 57 119 -5 0 -10 -6 -10 -14 0 -20 -67 -76 -91 -76 -16 0 -43 13 -78 36 -2
2 -7 18 -11 36 -6 27 -9 30 -15 15z"/>
<path d="M5645 2520 c3 -5 13 -10 21 -10 8 0 14 5 14 10 0 6 -9 10 -21 10 -11
0 -17 -4 -14 -10z"/>
<path d="M5738 2347 c-19 -14 -68 -86 -68 -99 0 -5 10 -8 22 -6 15 2 25 12 28
28 3 14 13 38 24 53 21 31 18 43 -6 24z"/>
<path d="M5490 1585 c-24 -29 -4 -45 54 -45 45 0 57 -4 66 -20 6 -11 15 -20
19 -20 10 0 40 87 33 95 -3 3 -40 5 -82 5 -56 0 -81 -4 -90 -15z"/>
<path d="M6754 1565 c-18 -44 -18 -51 2 -59 33 -13 71 -5 92 17 40 43 22 77
-41 77 -34 0 -40 -4 -53 -35z"/>
<path d="M6255 1550 c-21 -40 -19 -50 10 -50 29 0 40 19 31 55 -8 33 -22 32
-41 -5z"/>
<path d="M5592 1446 c-20 -34 -24 -36 -75 -36 -55 0 -86 -17 -72 -40 7 -11
143 -14 169 -4 11 4 16 19 16 48 0 63 -13 74 -38 32z"/>
</g>
</svg>
